 <svg  version="1.0" xmlns="http://www.w3.org/2000/svg"  width="300.000000pt" height="300.000000pt" viewBox="0 0 300.000000 300.000000"  preserveAspectRatio="xMidYMid meet">  <g transform="translate(0.000000,300.000000) scale(0.100000,-0.100000)" fill="#000000" stroke="none"> <path d="M0 1500 l0 -1500 1500 0 1500 0 0 1500 0 1500 -1500 0 -1500 0 0 -1500z m1573 1145 c181 -38 346 -194 426 -404 35 -92 61 -214 61 -287 0 -52 1 -54 39 -73 53 -27 117 -103 135 -159 12 -38 15 -121 17 -427 1 -209 -1 -393 -6 -410 -19 -72 -79 -166 -144 -227 -86 -81 -172 -131 -289 -168 -473 -152 -1006 57 -1072 422 -7 34 -10 199 -8 420 3 356 3 364 26 410 26 52 78 107 127 134 32 17 32 17 38 113 7 124 28 204 85 321 38 79 60 109 131 181 93 93 171 139 266 157 71 14 92 13 168 -3z"/> <path d="M1420 2381 c-82 -25 -158 -90 -200 -171 -28 -55 -57 -159 -65 -233 l-7 -68 336 2 336 1 0 47 c0 64 -34 191 -66 252 -40 73 -120 144 -184 163 -57 17 -109 19 -150 7z"/> <path d="M1425 1489 c-45 -13 -100 -63 -124 -112 -38 -79 -22 -176 41 -239 l38 -38 0 -95 0 -95 115 0 115 0 0 96 0 96 39 44 c144 164 -14 405 -224 343z m195 -102 c0 -29 -3 -33 -27 -32 -28 0 -28 0 -28 -69 0 -73 16 -99 34 -54 9 21 10 21 10 3 1 -34 -27 -65 -59 -65 -43 0 -53 27 -45 117 7 74 7 75 -16 71 -21 -3 -24 -11 -35 -81 -7 -43 -18 -84 -24 -92 -16 -19 -44 -19 -60 0 -10 12 -8 22 13 53 28 40 47 84 47 108 0 11 -7 13 -27 8 -16 -4 -34 -11 -40 -17 -17 -13 -16 -2 3 34 21 41 43 48 157 48 l97 1 0 -33z"/> </g> </svg> 